<svg width="339" height="45" viewBox="0 0 339 45" fill="none" xmlns="http://www.w3.org/2000/svg">
<path d="M0 12C0 5.37258 5.37258 0 12 0H48V33C48 39.6274 42.6274 45 36 45H23H0V12Z" fill="white"/>
<path d="M18.0766 33V12H20.8066V31.35H31.6366V33H18.0766Z" fill="black"/>
<path d="M65.8541 16.42V14.5H70.0301V7.108H74.1101V14.5H79.9181V16.42H74.1101V32.356C74.1101 32.74 74.1261 33.188 74.1581 33.7C74.1901 34.18 74.2861 34.644 74.4461 35.092C74.6061 35.508 74.8461 35.86 75.1661 36.148C75.5181 36.436 75.9981 36.58 76.6061 36.58C77.3741 36.58 78.0141 36.292 78.5261 35.716C79.0381 35.14 79.4541 34.516 79.7741 33.844L82.0301 36.148C80.4621 37.716 78.6861 38.5 76.7021 38.5C75.8701 38.5 75.0541 38.356 74.2541 38.068C73.4541 37.78 72.7341 37.348 72.0941 36.772C71.4861 36.164 70.9901 35.396 70.6061 34.468C70.2221 33.54 70.0301 32.452 70.0301 31.204V16.42H65.8541ZM86.2541 4.9V38.5H90.3341V24.628C90.3341 23.988 90.3821 23.204 90.4781 22.276C90.5741 21.348 90.8301 20.452 91.2461 19.588C91.6941 18.724 92.3501 17.988 93.2141 17.38C94.0781 16.74 95.2781 16.42 96.8141 16.42C97.9021 16.42 98.7661 16.628 99.4061 17.044C100.078 17.428 100.59 17.956 100.942 18.628C101.294 19.3 101.518 20.084 101.614 20.98C101.742 21.876 101.806 22.804 101.806 23.764V38.5H105.886V22.66C105.886 20.868 105.63 19.412 105.118 18.292C104.606 17.14 103.966 16.244 103.198 15.604C102.43 14.964 101.582 14.532 100.654 14.308C99.7581 14.084 98.8941 13.972 98.0621 13.972C96.9421 13.972 95.7581 14.196 94.5101 14.644C93.2941 15.06 92.1421 15.876 91.0541 17.092L90.5261 17.764H90.3341V4.9H86.2541ZM134.894 27.556V26.548C134.894 24.404 134.59 22.548 133.982 20.98C133.374 19.412 132.542 18.116 131.486 17.092C130.462 16.068 129.262 15.3 127.886 14.788C126.51 14.276 125.054 14.02 123.518 14.02C121.886 14.02 120.382 14.308 119.006 14.884C117.63 15.428 116.43 16.244 115.406 17.332C114.382 18.388 113.582 19.684 113.006 21.22C112.43 22.724 112.142 24.436 112.142 26.356C112.142 27.956 112.382 29.524 112.862 31.06C113.374 32.564 114.126 33.924 115.118 35.14C116.142 36.324 117.422 37.284 118.958 38.02C120.526 38.724 122.366 39.076 124.478 39.076C126.526 39.076 128.414 38.724 130.142 38.02C131.87 37.284 133.374 36.244 134.654 34.9L133.118 33.364C132.446 33.94 131.806 34.468 131.198 34.948C130.622 35.428 130.03 35.828 129.422 36.148C128.814 36.468 128.174 36.724 127.502 36.916C126.862 37.076 126.142 37.156 125.342 37.156C124.446 37.156 123.486 37.028 122.462 36.772C121.47 36.484 120.542 35.988 119.678 35.284C118.814 34.58 118.094 33.604 117.518 32.356C116.942 31.108 116.654 29.508 116.654 27.556H134.894ZM116.654 25.636C116.654 24.356 116.782 23.124 117.038 21.94C117.326 20.724 117.742 19.652 118.286 18.724C118.862 17.796 119.582 17.06 120.446 16.516C121.31 15.94 122.334 15.652 123.518 15.652C125.79 15.652 127.55 16.548 128.798 18.34C130.078 20.1 130.718 22.532 130.718 25.636H116.654ZM146.185 4.9H142.105V38.5H146.185V4.9ZM163.664 13.972C166 13.972 167.808 14.308 169.088 14.98C170.368 15.62 171.296 16.468 171.872 17.524C172.48 18.58 172.832 19.796 172.928 21.172C173.024 22.548 173.072 23.956 173.072 25.396V38.5H169.184V36.148C168.256 37.044 167.072 37.764 165.632 38.308C164.192 38.82 162.752 39.076 161.312 39.076C159.936 39.076 158.72 38.836 157.664 38.356C156.608 37.876 155.728 37.252 155.024 36.484C154.32 35.716 153.792 34.852 153.44 33.892C153.088 32.932 152.912 31.956 152.912 30.964C152.912 29.94 153.104 28.916 153.488 27.892C153.872 26.868 154.448 25.956 155.216 25.156C155.984 24.324 156.928 23.652 158.048 23.14C159.168 22.628 160.448 22.372 161.888 22.372C163.328 22.372 164.688 22.66 165.968 23.236C167.28 23.78 168.352 24.564 169.184 25.588V23.524C169.184 20.9 168.784 18.948 167.984 17.668C167.216 16.388 165.792 15.748 163.712 15.748C162.816 15.748 162.032 15.86 161.36 16.084C160.688 16.308 160.08 16.628 159.536 17.044C159.024 17.428 158.544 17.924 158.096 18.532C157.648 19.108 157.2 19.764 156.752 20.5L154.256 18.004C154.704 17.524 155.168 17.044 155.648 16.564C156.16 16.084 156.768 15.652 157.472 15.268C158.208 14.884 159.072 14.58 160.064 14.356C161.056 14.1 162.256 13.972 163.664 13.972ZM169.184 28.996C169.024 28.612 168.784 28.164 168.464 27.652C168.176 27.14 167.792 26.644 167.312 26.164C166.832 25.684 166.256 25.284 165.584 24.964C164.912 24.612 164.112 24.436 163.184 24.436C162.256 24.436 161.408 24.628 160.64 25.012C159.872 25.364 159.216 25.844 158.672 26.452C158.16 27.028 157.76 27.716 157.472 28.516C157.184 29.316 157.04 30.148 157.04 31.012C157.04 32.036 157.216 32.932 157.568 33.7C157.952 34.436 158.432 35.076 159.008 35.62C159.584 36.132 160.224 36.516 160.928 36.772C161.632 37.028 162.304 37.156 162.944 37.156C163.552 37.156 164.16 37.044 164.768 36.82C165.408 36.596 166 36.292 166.544 35.908C167.12 35.492 167.632 35.012 168.08 34.468C168.528 33.924 168.896 33.332 169.184 32.692V28.996ZM177.874 14.5L187.858 38.5H190.738L200.434 14.5H198.178L190.402 33.748H190.114L182.098 14.5H177.874ZM214.055 13.972C216.391 13.972 218.199 14.308 219.479 14.98C220.759 15.62 221.687 16.468 222.263 17.524C222.871 18.58 223.223 19.796 223.319 21.172C223.415 22.548 223.463 23.956 223.463 25.396V38.5H219.575V36.148C218.647 37.044 217.463 37.764 216.023 38.308C214.583 38.82 213.143 39.076 211.703 39.076C210.327 39.076 209.111 38.836 208.055 38.356C206.999 37.876 206.119 37.252 205.415 36.484C204.711 35.716 204.183 34.852 203.831 33.892C203.479 32.932 203.303 31.956 203.303 30.964C203.303 29.94 203.495 28.916 203.879 27.892C204.263 26.868 204.839 25.956 205.607 25.156C206.375 24.324 207.319 23.652 208.439 23.14C209.559 22.628 210.839 22.372 212.279 22.372C213.719 22.372 215.079 22.66 216.359 23.236C217.671 23.78 218.743 24.564 219.575 25.588V23.524C219.575 20.9 219.175 18.948 218.375 17.668C217.607 16.388 216.183 15.748 214.103 15.748C213.207 15.748 212.423 15.86 211.751 16.084C211.079 16.308 210.471 16.628 209.927 17.044C209.415 17.428 208.935 17.924 208.487 18.532C208.039 19.108 207.591 19.764 207.143 20.5L204.647 18.004C205.095 17.524 205.559 17.044 206.039 16.564C206.551 16.084 207.159 15.652 207.863 15.268C208.599 14.884 209.463 14.58 210.455 14.356C211.447 14.1 212.647 13.972 214.055 13.972ZM219.575 28.996C219.415 28.612 219.175 28.164 218.855 27.652C218.567 27.14 218.183 26.644 217.703 26.164C217.223 25.684 216.647 25.284 215.975 24.964C215.303 24.612 214.503 24.436 213.575 24.436C212.647 24.436 211.799 24.628 211.031 25.012C210.263 25.364 209.607 25.844 209.063 26.452C208.551 27.028 208.151 27.716 207.863 28.516C207.575 29.316 207.431 30.148 207.431 31.012C207.431 32.036 207.607 32.932 207.959 33.7C208.343 34.436 208.823 35.076 209.399 35.62C209.975 36.132 210.615 36.516 211.319 36.772C212.023 37.028 212.695 37.156 213.335 37.156C213.943 37.156 214.551 37.044 215.159 36.82C215.799 36.596 216.391 36.292 216.935 35.908C217.511 35.492 218.023 35.012 218.471 34.468C218.919 33.924 219.287 33.332 219.575 32.692V28.996ZM251.209 38.5V22.948C251.209 22.372 251.161 21.588 251.065 20.596C250.969 19.572 250.649 18.58 250.105 17.62C249.593 16.628 248.761 15.78 247.609 15.076C246.457 14.34 244.825 13.972 242.713 13.972C241.785 13.94 240.745 14.132 239.593 14.548C238.441 14.932 237.305 15.684 236.185 16.804L235.417 17.572H235.225V14.5H231.145V38.5H235.225V23.668C235.225 22.42 235.401 21.348 235.753 20.452C236.105 19.556 236.585 18.804 237.193 18.196C237.801 17.588 238.489 17.14 239.257 16.852C240.057 16.564 240.873 16.42 241.705 16.42C243.049 16.42 244.089 16.692 244.825 17.236C245.561 17.748 246.089 18.356 246.409 19.06C246.761 19.764 246.969 20.468 247.033 21.172C247.097 21.876 247.129 22.388 247.129 22.708V38.5H251.209ZM260.571 14.5V38.5H264.651V14.5H260.571ZM259.995 6.916C259.995 7.62 260.251 8.228 260.763 8.74C261.275 9.252 261.883 9.508 262.587 9.508C263.291 9.508 263.899 9.252 264.411 8.74C264.923 8.228 265.179 7.62 265.179 6.916C265.179 6.212 264.923 5.604 264.411 5.092C263.899 4.58 263.291 4.324 262.587 4.324C261.883 4.324 261.275 4.58 260.763 5.092C260.251 5.604 259.995 6.212 259.995 6.916ZM273.801 36.436C273.801 35.732 274.057 35.124 274.569 34.612C275.081 34.1 275.689 33.844 276.393 33.844C277.097 33.844 277.705 34.1 278.217 34.612C278.729 35.124 278.985 35.732 278.985 36.436C278.985 37.14 278.729 37.748 278.217 38.26C277.705 38.772 277.097 39.028 276.393 39.028C275.689 39.028 275.081 38.772 274.569 38.26C274.057 37.748 273.801 37.14 273.801 36.436ZM298.693 36.58C297.541 36.58 296.421 36.404 295.333 36.052C294.277 35.7 293.333 35.14 292.501 34.372C291.669 33.572 290.997 32.532 290.485 31.252C290.005 29.94 289.765 28.34 289.765 26.452C289.765 24.5 290.037 22.852 290.581 21.508C291.125 20.132 291.797 19.044 292.597 18.244C293.429 17.412 294.341 16.82 295.333 16.468C296.325 16.084 297.269 15.892 298.165 15.892C299.637 15.892 300.917 16.276 302.005 17.044C303.093 17.812 303.813 18.756 304.165 19.876H307.477C307.157 18.724 306.645 17.78 305.941 17.044C305.237 16.276 304.421 15.668 303.493 15.22C302.597 14.74 301.621 14.42 300.565 14.26C299.541 14.068 298.549 13.972 297.589 13.972C295.573 13.972 293.797 14.308 292.261 14.98C290.725 15.62 289.429 16.5 288.373 17.62C287.317 18.74 286.517 20.052 285.973 21.556C285.461 23.06 285.205 24.66 285.205 26.356C285.205 28.148 285.493 29.828 286.069 31.396C286.645 32.932 287.461 34.276 288.517 35.428C289.605 36.548 290.901 37.444 292.405 38.116C293.909 38.756 295.605 39.076 297.493 39.076C299.605 39.076 301.445 38.724 303.013 38.02C304.613 37.316 305.957 36.548 307.045 35.716L305.653 33.892C304.533 34.82 303.413 35.508 302.293 35.956C301.205 36.372 300.005 36.58 298.693 36.58ZM336.178 26.548C336.178 28.212 335.89 29.812 335.314 31.348C334.738 32.852 333.906 34.18 332.818 35.332C331.762 36.484 330.466 37.396 328.93 38.068C327.426 38.74 325.73 39.076 323.842 39.076C321.922 39.076 320.178 38.74 318.61 38.068C317.074 37.364 315.762 36.436 314.674 35.284C313.618 34.132 312.786 32.804 312.178 31.3C311.602 29.764 311.314 28.18 311.314 26.548C311.314 24.884 311.602 23.3 312.178 21.796C312.786 20.26 313.618 18.916 314.674 17.764C315.762 16.612 317.074 15.7 318.61 15.028C320.178 14.324 321.922 13.972 323.842 13.972C325.73 13.972 327.426 14.324 328.93 15.028C330.466 15.7 331.762 16.612 332.818 17.764C333.906 18.916 334.738 20.26 335.314 21.796C335.89 23.3 336.178 24.884 336.178 26.548ZM331.618 26.548C331.618 24.308 331.378 22.5 330.898 21.124C330.418 19.716 329.794 18.628 329.026 17.86C328.258 17.092 327.41 16.58 326.482 16.324C325.554 16.036 324.658 15.892 323.794 15.892C322.93 15.892 322.034 16.036 321.106 16.324C320.178 16.58 319.314 17.092 318.514 17.86C317.746 18.628 317.106 19.716 316.594 21.124C316.114 22.5 315.874 24.308 315.874 26.548C315.874 28.756 316.114 30.564 316.594 31.972C317.106 33.348 317.746 34.42 318.514 35.188C319.314 35.956 320.178 36.484 321.106 36.772C322.034 37.028 322.93 37.156 323.794 37.156C324.658 37.156 325.554 37.028 326.482 36.772C327.41 36.484 328.258 35.956 329.026 35.188C329.794 34.42 330.418 33.348 330.898 31.972C331.378 30.564 331.618 28.756 331.618 26.548Z" fill="white"/>
</svg>
